<svg width="376" height="462" viewBox="0 0 376 462" fill="none" xmlns="http://www.w3.org/2000/svg">
<path d="M320.942 308.086C247.521 272.948 128.483 272.948 55.0622 308.086C-18.3582 343.224 -18.35 400.204 55.0622 435.342C128.474 470.48 247.513 470.487 320.934 435.342C394.354 400.197 394.354 343.204 320.942 308.086Z" fill="#F5F5F5"/>
<path d="M196.976 39.9233L209.728 33.033V377.679L196.989 384.57L196.976 39.9233Z" fill="#37474F"/>
<path d="M177.862 374.222L196.989 384.57L196.976 39.9232L192.357 37.4198L190.804 52.3925L189.213 35.7271L177.862 29.5878V374.222Z" fill="#455A64"/>
<path opacity="0.1" d="M196.964 273.526V231.04C196.226 214.529 195.373 192.893 195.513 183.439L191.097 181.055C191.097 195.468 189.366 222.028 188.425 239.933C187.152 265.313 191.95 298.107 192.153 311.339C192.357 324.572 192.153 381.959 192.153 381.959L194.329 383.151C194.329 383.151 193.68 310.982 195.513 291.813C196.149 285.209 196.62 278.998 196.964 273.526ZM192.599 282.515C189.684 281.322 190.397 217.176 193.413 218.141C195.806 218.988 195.538 283.719 192.624 282.515H192.599Z" fill="black"/>
<path d="M192.357 37.4198L189.213 35.7271L190.804 52.3925L192.357 37.4198Z" fill="#263238"/>
<path opacity="0.05" d="M184.047 32.9257C183.78 51.3794 187.648 63.7533 187.572 89.4072C187.572 89.4072 187.139 71.2635 184.53 57.8167C182.808 49.1624 181.838 40.3917 181.629 31.5906L184.047 32.9257Z" fill="white"/>
<path opacity="0.05" d="M196.964 39.9233C196.964 46.0029 196.684 59.867 195.882 68.4024C195.127 80.2709 195.03 92.1681 195.589 104.046C195.589 104.046 193.311 83.9115 194.075 71.9787C194.838 60.0458 194.826 38.755 194.826 38.755L196.964 39.9233Z" fill="white"/>
<path opacity="0.1" d="M177.875 98.1332V120.235C179.898 108.588 183.067 96.2974 183.627 91.0641C184.467 83.232 183.067 68.8435 181.641 60.7134C180.216 52.5833 177.824 38.8742 178.244 29.8381L177.875 29.5878V51.5581L178.065 52.9767C179.643 63.8486 180.471 79.9419 179.885 87.1183C179.495 90.8299 178.823 94.5109 177.875 98.1332Z" fill="black"/>
<path opacity="0.05" d="M185.345 255.49C184.963 263.596 188.666 293.828 189.379 303.352C190.779 321.961 190.142 380.839 190.142 380.839L187.597 379.444C187.597 379.444 187.903 312.877 187.597 305.14C187.152 294.459 184.238 264.872 185.345 255.49Z" fill="white"/>
<path opacity="0.1" d="M187.572 179.744C187.572 194.478 187.076 222.421 185.027 234.211C182.263 251.644 181.835 269.333 183.754 286.866C185.181 299.936 185.428 313.096 184.492 326.205C184.492 326.205 183.716 303.484 181.514 284.887C179.605 266.386 179.664 247.753 181.693 229.264C183.423 211.287 183.92 177.086 183.92 177.086L187.572 179.744Z" fill="black"/>
<path opacity="0.05" d="M180.891 176.132C180.891 176.132 180.598 199.533 180.153 207.305C179.707 215.078 178.498 230.253 178.498 230.253C178.498 230.253 178.104 205.338 178.498 197.339C178.893 189.34 178.32 174.308 178.32 174.308L180.891 176.132Z" fill="white"/>
<path opacity="0.05" d="M180.891 305.272C182.316 317.789 182.507 332.439 182.889 337.971C183.27 343.502 183.856 377.465 183.856 377.465L180.891 375.891C180.891 375.891 180.636 340.713 180.547 332.809C180.42 322.64 181.412 311.995 180.891 305.272Z" fill="white"/>
<path opacity="0.1" d="M187.508 38.2662C188.157 47.9818 190.575 57.3397 191.326 64.1824C192.077 71.025 192.599 92.0893 192.599 92.0893L190.053 90.7423C190.053 90.7423 190.601 71.4661 189.328 62.0604C188.055 52.6548 187.215 44.489 187.508 38.2662Z" fill="black"/>
<path d="M209.728 33.0329L190.613 22.6855L177.862 29.5878L196.976 39.9232L209.728 33.0329Z" fill="#263238"/>
<path opacity="0.15" d="M209.728 229.478L196.989 236.369V253.118L209.728 246.215V229.478Z" fill="black"/>
<path opacity="0.15" d="M196.989 236.369L177.862 226.033V242.77L196.989 253.117V236.369Z" fill="black"/>
<path d="M73.2409 118.148L309.004 245.607L322.672 238.24L86.9342 110.734L73.2409 118.148Z" fill="#263238"/>
<path d="M62.1438 109.494L299.396 237.751V186.396L278.398 175.047L276.107 190.02L274.733 173.056L62.1438 58.1384L62.1566 91.3502L68.9777 97.716L62.1438 95.8563V109.494Z" fill="#455A64"/>
<path opacity="0.05" d="M299.396 229.264C287.052 222.564 235.129 195.122 229.148 192.452C211.764 184.655 196.773 178.528 173.51 166.118C173.51 166.118 184.301 173.271 207.565 184.572C218.484 189.841 228.486 194.347 233.742 196.791C238.998 199.235 299.396 231.815 299.396 231.815V229.264Z" fill="white"/>
<path opacity="0.1" d="M62.1947 69.1534L82.4419 80.1207C100.577 89.9555 112.768 97.0365 120.62 103.808C128.472 110.579 143.743 119.15 150.59 122.643C150.59 122.643 142.547 119.901 127.479 111.163C112.412 102.425 109.663 97.8591 88.2322 86.26L62.1947 72.1337V69.1534Z" fill="black"/>
<path opacity="0.1" d="M299.396 223.112L236.211 188.959C229.339 185.24 213.164 182.319 204.294 177.515C209.146 180.654 214.374 183.25 219.871 185.251C228.893 188.494 290.933 221.3 299.383 225.866L299.396 223.112Z" fill="black"/>
<path opacity="0.05" d="M68.9777 97.716L129.401 130.451C143.107 137.878 165.887 152.791 185.078 162.53C204.268 172.27 218.42 177.861 218.42 177.861C218.42 177.861 200.056 172.961 184.874 164.747C169.692 156.534 142.051 140.333 125.38 131.297L62.1565 97.0484V95.8563L68.9777 97.716Z" fill="white"/>
<path opacity="0.05" d="M299.396 204.742C286.67 197.84 244.521 175.083 234.493 169.623C224.465 164.163 209.041 154.126 191.975 144.828C178.564 137.524 164.571 131.203 150.119 125.921C142.384 122.939 134.845 119.528 127.543 115.705C136.481 121.3 145.901 126.189 155.706 130.32C172.644 137.532 192.93 147.462 210.937 159.455C228.944 171.447 299.396 208.116 299.396 208.116V204.742Z" fill="white"/>
<path opacity="0.05" d="M62.2075 62.2512C62.2075 62.2512 138.475 102.782 157.538 113.07C176.602 123.358 201.583 137.77 201.583 137.77C201.583 137.77 161.331 117.684 120.938 95.8325L62.2075 64.0036V62.2512Z" fill="white"/>
<path opacity="0.1" d="M299.396 195.098C299.396 195.098 211.293 147.414 186.452 133.991C161.611 120.568 133.957 108.111 133.957 108.111C133.957 108.111 154.586 120.89 185.09 137.472C194.126 142.384 299.396 199.318 299.396 199.318V195.11" fill="black"/>
<path opacity="0.1" d="M62.1438 101.423L130.419 138.378C144.418 145.96 180.725 166.691 189.379 171.829C189.379 171.829 153.632 154.233 106.087 128.472L62.1438 104.63V101.423Z" fill="black"/>
<path opacity="0.1" d="M62.1692 89.7886L119.678 120.95C133.053 128.198 164.219 147.903 177.976 155.33C191.733 162.757 282.19 208.903 299.396 218.225V214.649C288.719 208.855 202.041 156.152 181.336 144.923C160.631 133.693 139.429 128.067 126.525 121.081L62.1692 86.2123V89.7886ZM151.659 135.648C151.659 133.848 169.323 141.406 181.463 147.975C192.166 153.78 213.431 167.191 213.431 168.86C213.431 170.529 192.65 160.086 181.463 154.019C170.277 147.951 151.659 137.472 151.659 135.637V135.648Z" fill="black"/>
<path opacity="0.05" d="M62.2074 75.9722C70.5684 80.5021 96.5678 94.3066 103.873 99.516C111.177 104.725 118.635 113.13 132.633 120.711C132.633 120.711 118.189 115.061 109.879 107.682C101.569 100.303 62.131 79.6319 62.131 79.6319L62.2074 75.9722Z" fill="white"/>
<path opacity="0.2" d="M87.0359 71.5972L274.898 175.214L276.171 180.018L278.092 176.99L297.016 188.065L299.396 237.751V186.396L278.398 175.047L276.565 174.022L274.733 173.056L87.0359 71.5972Z" fill="white"/>
<path d="M313.064 230.348L299.396 237.751V186.396L313.064 178.85V230.348Z" fill="#37474F"/>
<path d="M278.398 175.047L276.107 190.02L274.733 173.056L276.565 174.022L278.398 175.047Z" fill="#263238"/>
<path d="M274.733 173.056L276.565 174.022L276.107 190.02L274.733 173.056Z" fill="#37474F"/>
<path d="M62.1565 91.3502L64.1927 94.8907L62.1565 95.8563L68.9777 97.716L62.1565 91.3502Z" fill="#37474F"/>
<path d="M62.1565 91.3502L64.1927 94.8907L68.9777 97.716L62.1565 91.3502Z" fill="#263238"/>
<path d="M305.186 230.265L299.396 230.456L288.782 226.236L299.396 235.82L305.186 230.265Z" fill="#263238"/>
<path d="M305.186 230.265L299.396 233.007L288.782 226.236L299.396 230.456L305.186 230.265Z" fill="#37474F"/>
<path d="M62.1438 58.1385L299.396 186.396L313.064 178.85L75.9643 50.6641L62.1438 58.1385Z" fill="#263238"/>
<path d="M68.5068 58.8418L304.27 186.301V134.945L91.9101 20.1464L89.6194 35.1191L88.245 18.1556L68.5068 7.48633V58.8418Z" fill="#455A64"/>
<path opacity="0.05" d="M304.27 177.753C291.926 171.066 240.016 143.624 234.022 140.953C216.638 133.157 201.647 127.03 178.396 114.62C178.396 114.62 189.175 121.772 212.439 133.073C223.358 138.343 233.373 142.849 238.616 145.292C243.859 147.736 304.27 180.316 304.27 180.316V177.753Z" fill="white"/>
<path opacity="0.1" d="M68.5578 18.5013L87.316 28.6699C105.463 38.5047 117.642 45.5738 125.494 52.3449C133.346 59.116 148.605 67.6991 155.502 71.18C155.502 71.18 147.447 68.4501 132.379 59.7001C117.311 50.9502 114.562 46.4083 93.1318 34.7973L68.545 21.4816L68.5578 18.5013Z" fill="black"/>
<path opacity="0.1" d="M304.27 171.662C291.302 164.628 247.944 141.227 241.085 137.508C234.226 133.789 218.038 130.868 209.168 126.064C214.025 129.204 219.257 131.8 224.757 133.801C233.78 137.043 295.833 169.85 304.27 174.415V171.662Z" fill="black"/>
<path opacity="0.05" d="M68.5196 43.3684L134.275 79.0597C147.981 86.4865 170.761 101.4 189.964 111.139C209.168 120.878 223.294 126.469 223.294 126.469C223.294 126.469 204.93 121.57 189.748 113.356C174.566 105.143 146.925 88.9422 130.266 79.9061L68.5068 46.3606L68.5196 43.3684Z" fill="white"/>
<path opacity="0.05" d="M304.27 153.291C291.544 146.389 249.395 123.632 239.367 118.172C229.339 112.713 213.915 102.675 196.849 93.3768C183.433 86.0672 169.43 79.746 154.968 74.4702C147.232 71.4883 139.693 68.0769 132.392 64.2539C141.346 69.8519 150.783 74.7405 160.605 78.869C177.544 86.0216 197.829 96.0113 215.836 108.004C233.844 119.996 304.295 156.665 304.295 156.665L304.27 153.291Z" fill="white"/>
<path opacity="0.05" d="M68.5704 11.5991C142.242 50.6879 141.911 50.4495 162.425 61.6075C181.514 71.943 206.457 86.3196 206.457 86.3196C206.457 86.3196 166.141 66.2328 125.825 44.3817L68.5577 13.3873L68.5704 11.5991Z" fill="white"/>
<path opacity="0.1" d="M304.27 143.647C304.27 143.647 216.167 95.9636 191.326 82.5407C166.485 69.1177 138.831 56.6603 138.831 56.6603C138.831 56.6603 159.46 69.4276 189.964 86.0097C199 90.9211 304.27 147.856 304.27 147.856V143.647Z" fill="black"/>
<path opacity="0.1" d="M68.5067 50.7714L135.293 86.9634C149.292 94.5451 185.599 115.264 194.253 120.414C194.253 120.414 158.505 102.818 110.961 77.0571L68.494 54.0258L68.5067 50.7714Z" fill="black"/>
<path opacity="0.1" d="M68.5195 39.1245L124.552 69.523C137.927 76.7709 169.094 96.4762 182.85 103.903C196.607 111.33 287.064 157.476 304.27 166.798V163.222C293.593 157.44 206.928 104.726 186.21 93.5079C165.492 82.2903 144.316 76.6517 131.399 69.666L68.5322 35.5959L68.5195 39.1245ZM156.546 84.1857C156.546 82.3857 174.209 89.9316 186.337 96.512C197.04 102.317 218.305 115.729 218.305 117.397C218.305 119.066 197.524 108.624 186.337 102.556C175.151 96.4881 156.533 85.9858 156.546 84.1857Z" fill="black"/>
<path opacity="0.05" d="M68.5577 25.3201C76.9314 29.85 101.493 42.8439 108.747 48.0652C116 53.2866 123.509 61.679 137.507 69.2607C137.507 69.2607 123.063 63.6102 114.753 56.2192C106.443 48.8282 68.494 28.9917 68.494 28.9917L68.5577 25.3201Z" fill="white"/>
<path d="M91.9101 20.1464L90.0776 19.157L88.245 18.1556L89.6194 35.1191L91.9101 20.1464Z" fill="#263238"/>
<path opacity="0.2" d="M91.9101 20.1464L301.903 136.614L304.27 186.301V134.945L91.9101 20.1464Z" fill="white"/>
<path d="M304.27 151.158L291.391 147.581L304.27 157.428V151.158Z" fill="#37474F"/>
<path d="M317.938 178.85L304.27 186.301V134.945L317.938 127.351V178.85Z" fill="#37474F"/>
<path d="M304.27 134.945L317.938 127.351L82.391 0L68.5068 7.48635L304.27 134.945Z" fill="#263238"/>
<path d="M304.27 151.158L307.922 152.374L304.27 157.428V151.158Z" fill="#37474F"/>
<path d="M307.922 152.374L304.27 154.352L291.391 147.581L304.27 157.428L307.922 152.374Z" fill="#263238"/>
<path d="M88.245 18.1556L90.0776 19.157L89.6194 35.1191L88.245 18.1556Z" fill="#37474F"/>
<path d="M73.2409 118.148L309.004 245.607V296.963L96.6442 182.164L94.3534 164.712L92.979 180.173L73.2409 169.504V118.148Z" fill="#455A64"/>
<path opacity="0.05" d="M308.953 254.155C296.609 247.491 244.686 218.869 238.705 215.078C221.321 204.063 206.33 193.978 183.067 181.234C183.067 181.234 193.859 185.681 217.122 199.604C228.041 206.149 262.528 225.652 267.772 228.882C273.015 232.113 308.953 251.603 308.953 251.603V254.155Z" fill="white"/>
<path opacity="0.1" d="M73.2918 158.537L92.05 168.669C110.185 178.457 122.376 184.56 130.228 186.312C138.08 188.065 153.351 195.968 160.198 199.902C152.917 194.812 145.21 190.279 137.151 186.348C122.071 178.79 119.335 180.388 97.904 168.813L73.3172 155.533L73.2918 158.537Z" fill="black"/>
<path opacity="0.1" d="M308.953 260.258C295.972 253.261 277.138 243.056 270.24 239.349C263.343 235.641 222.721 207.878 213.851 203.085C219.404 205.565 224.634 208.632 229.441 212.229C238.463 218.726 300.503 252.951 308.953 257.528V260.258Z" fill="black"/>
<path opacity="0.05" d="M73.2535 133.634L139.009 169.134C152.715 176.525 175.495 186.265 194.686 197.28C213.877 208.295 228.028 218.01 228.028 218.01C228.028 218.01 209.69 203.038 194.418 194.848C179.147 186.658 151.608 172.961 134.937 163.961L73.1899 130.582L73.2535 133.634Z" fill="white"/>
<path opacity="0.05" d="M308.953 278.616L268.471 256.765C258.392 251.317 218.573 231.612 201.481 222.385C186.933 214.456 172.952 205.648 159.625 196.016C152.403 190.921 144.901 186.182 137.151 181.818C137.151 181.818 148.426 186.587 165.365 197.721C182.303 208.855 202.589 220.836 220.596 228.322C238.603 235.808 308.953 275.255 308.953 275.255V278.616Z" fill="white"/>
<path opacity="0.05" d="M73.3046 165.463C73.3046 165.463 148.083 206.673 167.147 216.961C186.21 227.249 211.191 239.897 211.191 239.897C211.191 239.897 170.875 216.365 130.546 194.598L73.2791 163.687L73.3046 165.463Z" fill="white"/>
<path opacity="0.1" d="M308.953 288.26L196.009 227.297C171.232 213.898 143.514 196.398 143.514 196.398C143.514 196.398 164.143 205.934 194.647 222.361C203.734 227.225 308.953 284.1 308.953 284.1V288.296" fill="black"/>
<path opacity="0.1" d="M73.2408 126.219L140.027 162.28C154.026 169.838 190.333 188.375 198.987 192.595C198.987 192.595 163.24 171.519 115.695 145.865L73.2281 122.941L73.2408 126.219Z" fill="black"/>
<path opacity="0.1" d="M73.2663 141.514L136.133 175.453C149.037 182.414 170.239 199.7 190.944 210.882C211.65 222.063 298.327 263.012 309.004 268.77V265.193C291.798 255.907 201.278 204.242 187.585 196.851C173.891 189.46 142.662 175.393 129.274 168.169L73.279 137.925L73.2663 141.514ZM191.071 201.846C202.258 207.889 223.039 219.918 223.039 221.587C223.039 223.256 201.774 213.671 191.071 207.901C178.931 201.345 161.28 189.793 161.267 187.993C161.254 186.193 179.873 195.885 191.071 201.846Z" fill="black"/>
<path opacity="0.05" d="M73.2917 151.778C81.6655 156.296 106.227 169.874 113.481 172.496C120.734 175.119 128.243 174.88 142.242 182.426C142.242 182.426 127.797 172.448 119.487 170.839C111.177 169.23 73.2281 148.046 73.2281 148.046L73.2917 151.778Z" fill="white"/>
<path d="M96.6441 182.164L94.1752 176.847L92.9789 180.173L94.3533 164.712L96.6441 182.164Z" fill="#263238"/>
<path opacity="0.2" d="M96.6442 130.809L306.624 247.276L309.004 296.963V245.607L96.6442 130.809Z" fill="white"/>
<path d="M309.004 280.75L296.125 270.403L309.004 274.48V280.75Z" fill="#37474F"/>
<path d="M322.672 238.24L309.004 245.607V296.963L322.672 289.584V238.24Z" fill="#37474F"/>
<path d="M309.004 280.75L319.019 271.428L309.004 274.48V280.75Z" fill="#37474F"/>
<path d="M319.019 271.428L309.004 277.555L296.125 270.403L309.004 274.48L319.019 271.428Z" fill="#263238"/>
<path d="M92.9789 180.173L94.1752 176.847L94.3533 164.712L92.9789 180.173Z" fill="#37474F"/>
<path d="M184.238 94.3186C187.84 96.2576 191.045 98.7803 193.706 101.769C196.34 104.75 198.547 108.04 200.273 111.556C202.001 115.162 203.282 118.942 204.09 122.822C204.943 126.697 205.449 130.633 205.605 134.588C205.698 137.671 205.745 140.85 205.745 144.124C205.745 147.399 205.698 150.478 205.605 153.363C205.503 156.783 204.995 160.181 204.09 163.496C203.483 166.115 202.168 168.545 200.273 170.553C198.54 172.215 196.185 173.181 193.706 173.247C191.059 173.366 187.903 172.433 184.238 170.446C180.634 168.515 177.427 165.995 174.77 163.007C172.133 160.023 169.925 156.729 168.203 153.208C166.474 149.606 165.193 145.83 164.385 141.955C163.534 138.079 163.028 134.143 162.871 130.189C162.777 127.248 162.731 124.117 162.731 120.795C162.731 117.473 162.777 114.326 162.871 111.354C162.972 107.93 163.48 104.527 164.385 101.209C164.993 98.5929 166.307 96.1669 168.203 94.1636C169.932 92.4961 172.289 91.5291 174.77 91.4694C177.417 91.39 180.573 92.3397 184.238 94.3186ZM192.09 145.579C192.276 139.69 192.276 133.761 192.09 127.793C191.999 126.065 191.817 124.342 191.543 122.631C191.292 121.075 190.865 119.548 190.27 118.077C189.699 116.685 188.905 115.383 187.916 114.215C186.904 113.013 185.656 112.005 184.238 111.246C183.157 110.561 181.878 110.203 180.573 110.221C180.117 110.223 179.667 110.323 179.259 110.513C178.851 110.703 178.495 110.978 178.218 111.318C177.548 112.332 177.09 113.457 176.869 114.632C176.56 116.165 176.398 117.721 176.386 119.281C176.14 125.003 176.14 130.928 176.386 137.055C176.425 138.772 176.587 140.484 176.869 142.181C177.103 143.748 177.531 145.284 178.142 146.759C178.736 148.155 179.542 149.464 180.534 150.645C181.546 151.832 182.79 152.828 184.2 153.578C185.275 154.275 186.557 154.638 187.865 154.615C188.34 154.567 188.798 154.425 189.211 154.199C189.623 153.973 189.98 153.668 190.257 153.303C190.924 152.355 191.359 151.28 191.53 150.156C191.844 148.638 192.031 147.1 192.09 145.555V145.579Z" fill="#263238"/>
<path d="M200.272 170.601C198.542 172.275 196.18 173.247 193.693 173.307C191.059 173.426 187.915 172.496 184.238 170.517C180.637 168.581 177.435 166.058 174.782 163.067C173.54 161.665 172.392 160.192 171.346 158.656L175.826 156.272C176.742 157.535 177.709 158.751 178.753 159.931C181.405 162.923 184.608 165.446 188.208 167.382C191.873 169.361 195.033 170.291 197.689 170.172C198.945 170.119 200.183 169.874 201.354 169.444C201.022 169.852 200.66 170.238 200.272 170.601Z" fill="#37474F"/>
<path d="M192.917 112.438L188.424 114.906C188.259 114.668 188.094 114.417 187.915 114.191C186.897 113.002 185.65 112.003 184.238 111.246C183.157 110.56 181.878 110.203 180.572 110.221C180.116 110.222 179.667 110.321 179.258 110.512C178.85 110.702 178.494 110.978 178.218 111.318C177.811 111.878 177.836 111.83 178.218 111.318C178.44 111.017 178.715 110.755 179.033 110.543L182.965 107.67C183.427 107.323 183.991 107.116 184.581 107.074C185.888 107.046 187.17 107.405 188.246 108.099C189.645 108.839 190.877 109.827 191.873 111.008C192.256 111.462 192.604 111.94 192.917 112.438Z" fill="#37474F"/>
<path d="M204.154 122.595C203.348 118.719 202.067 114.943 200.336 111.342C198.614 107.821 196.406 104.526 193.77 101.543C191.109 98.5538 187.903 96.0311 184.301 94.092C180.636 92.1131 177.48 91.1833 174.833 91.3025C173.648 91.3542 172.482 91.5962 171.384 92.0178C169.946 93.8314 168.915 95.8997 168.356 98.0975C167.455 101.412 166.951 104.811 166.854 108.23C166.752 111.211 166.701 114.37 166.701 117.684C166.701 120.998 166.701 124.121 166.854 127.065C167.005 131.02 167.508 134.955 168.356 138.831C169.164 142.711 170.445 146.491 172.173 150.097C173.896 153.617 176.108 156.908 178.753 159.884C181.402 162.878 184.605 165.402 188.208 167.334C191.886 169.325 195.029 170.243 197.676 170.124C198.935 170.072 200.177 169.83 201.354 169.409C202.734 167.553 203.715 165.464 204.243 163.257C205.11 159.963 205.588 156.589 205.668 153.196C205.762 150.359 205.808 147.283 205.808 143.969C205.808 140.643 205.808 137.449 205.668 134.361C205.511 130.407 205.005 126.471 204.154 122.595ZM196.06 142.372C196.032 143.919 195.874 145.461 195.589 146.985C195.424 148.111 194.989 149.187 194.317 150.132C194.078 150.432 193.791 150.693 193.464 150.907C193.464 150.907 189.799 153.661 189.481 153.876C189.023 154.158 188.499 154.334 187.954 154.388C186.646 154.411 185.364 154.048 184.289 153.351C182.876 152.605 181.631 151.609 180.624 150.419C179.631 149.237 178.825 147.929 178.231 146.532C177.62 145.058 177.193 143.521 176.958 141.955C176.676 140.262 176.514 138.553 176.475 136.841C176.229 130.705 176.229 124.777 176.475 119.054C176.502 117.514 176.672 115.978 176.984 114.465C177.182 113.347 177.615 112.278 178.256 111.318C178.481 111.02 178.757 110.758 179.071 110.543C179.516 110.233 182.685 107.837 182.965 107.646C183.434 107.308 183.993 107.097 184.581 107.038C185.888 107.023 187.167 107.385 188.246 108.075C189.642 108.83 190.872 109.825 191.873 111.008C192.849 112.183 193.637 113.484 194.215 114.87C194.815 116.344 195.242 117.875 195.488 119.436C195.762 121.147 195.944 122.87 196.035 124.598C196.255 130.558 196.264 136.483 196.06 142.372Z" fill="#AFB7BB"/>
<path d="M136.769 143.779C136.141 143.391 135.653 142.834 135.37 142.181C134.981 141.439 134.781 140.623 134.784 139.797V129.008L111.699 116.551C111.068 116.166 110.58 115.608 110.299 114.954C109.91 114.212 109.71 113.396 109.714 112.569V101.352C109.6 99.9461 109.932 98.5402 110.668 97.3107L132.608 69.2845C132.885 68.8643 133.314 68.5513 133.817 68.4024C134.356 68.4006 134.882 68.5592 135.319 68.8554L146.403 74.8158C147.027 75.2077 147.514 75.7633 147.803 76.4132C148.183 77.158 148.383 77.9721 148.388 78.7974V119.424L154.688 122.845C155.318 123.23 155.807 123.788 156.088 124.443C156.477 125.184 156.677 126.001 156.673 126.827V138.045C156.704 138.349 156.668 138.657 156.567 138.948C156.467 139.239 156.303 139.508 156.088 139.737C155.906 139.909 155.664 140.013 155.407 140.03C155.149 140.048 154.894 139.978 154.688 139.833L148.388 136.423V147.212C148.416 147.516 148.379 147.823 148.278 148.114C148.178 148.404 148.016 148.673 147.803 148.905C147.621 149.076 147.379 149.18 147.122 149.198C146.865 149.215 146.609 149.145 146.403 149L136.769 143.779ZM135.153 112.319V92.8522L124.425 106.478L135.153 112.319Z" fill="#263238"/>
<path d="M156.062 139.714C156.278 139.484 156.441 139.215 156.542 138.924C156.643 138.633 156.679 138.325 156.648 138.021V135.553L152.333 133.169L148.363 136.352L154.662 139.761C154.863 139.912 155.115 139.991 155.372 139.982C155.629 139.973 155.874 139.878 156.062 139.714Z" fill="#37474F"/>
<path d="M148.363 144.72V147.188C148.393 147.493 148.355 147.802 148.252 148.093C148.149 148.384 147.983 148.652 147.765 148.881C147.583 149.052 147.341 149.156 147.084 149.174C146.826 149.191 146.571 149.121 146.365 148.976L136.769 143.779C136.142 143.39 135.654 142.833 135.369 142.181L135.293 141.99L139.264 138.819C139.283 138.885 139.309 138.949 139.34 139.01C139.629 139.66 140.116 140.216 140.74 140.608L148.363 144.72Z" fill="#37474F"/>
<path d="M138.755 125.885L134.784 129.056L111.699 116.551C111.079 116.161 110.6 115.604 110.325 114.954C110.261 114.834 110.236 114.727 110.185 114.608L114.295 111.771C114.571 112.431 115.061 112.994 115.695 113.38L138.755 125.885Z" fill="#37474F"/>
<path d="M154.662 122.655L148.363 119.245V78.6067C148.36 77.7809 148.16 76.9662 147.777 76.2225C147.493 75.5703 147.005 75.0136 146.377 74.6251L135.293 68.6646C135.127 68.5742 134.952 68.4983 134.771 68.4381L114.613 94.1993C113.879 95.4253 113.547 96.8268 113.659 98.2286V109.446C113.66 110.273 113.864 111.089 114.257 111.83C114.532 112.484 115.017 113.042 115.644 113.428L138.755 125.933V136.721C138.76 137.528 138.96 138.322 139.34 139.046C139.626 139.7 140.114 140.26 140.74 140.655L148.375 144.768V136.423L152.346 133.24L156.66 135.625V126.66C156.661 125.834 156.461 125.019 156.075 124.276C155.795 123.611 155.302 123.044 154.662 122.655ZM139.124 109.148L135.153 112.105L124.425 106.311L135.14 92.6257L139.111 89.6812L139.124 109.148Z" fill="#AFB7BB"/>
<path d="M238.832 198.972C238.202 198.587 237.713 198.03 237.433 197.375C237.053 196.651 236.853 195.857 236.847 195.05V184.25L213.737 171.757C213.106 171.367 212.617 170.805 212.337 170.148C211.957 169.424 211.757 168.629 211.751 167.823V156.605C211.64 155.204 211.972 153.802 212.706 152.576L234.646 124.55C234.912 124.121 235.345 123.804 235.855 123.668C236.392 123.663 236.918 123.817 237.356 124.109L248.441 130.069C249.064 130.459 249.548 131.015 249.828 131.667C250.217 132.409 250.417 133.225 250.413 134.051V174.666L256.776 178.075C257.407 178.46 257.896 179.018 258.176 179.672C258.562 180.415 258.762 181.231 258.762 182.057V193.274C258.791 193.579 258.754 193.886 258.654 194.177C258.553 194.468 258.391 194.737 258.176 194.967C257.993 195.137 257.75 195.239 257.493 195.254C257.236 195.269 256.981 195.197 256.776 195.05L250.413 191.641V202.37C250.445 202.675 250.409 202.982 250.309 203.273C250.208 203.565 250.044 203.833 249.828 204.063C249.65 204.236 249.41 204.341 249.154 204.358C248.898 204.376 248.644 204.305 248.441 204.158L238.832 198.972ZM237.216 167.525V148.046L226.501 161.731L237.216 167.525Z" fill="#263238"/>
<path d="M258.125 194.919C258.34 194.689 258.502 194.42 258.603 194.129C258.703 193.838 258.74 193.531 258.711 193.227V190.759L254.396 188.375L250.413 191.593L256.776 195.003C256.977 195.137 257.221 195.201 257.467 195.186C257.712 195.171 257.945 195.077 258.125 194.919Z" fill="#37474F"/>
<path d="M250.413 199.926V202.394C250.442 202.698 250.404 203.003 250.301 203.293C250.198 203.582 250.033 203.848 249.815 204.075C249.635 204.248 249.392 204.354 249.134 204.372C248.876 204.389 248.62 204.318 248.415 204.17L238.82 198.984C238.194 198.589 237.706 198.029 237.42 197.375L237.344 197.184L241.314 194.013C241.328 194.081 241.354 194.145 241.39 194.204C241.679 194.854 242.166 195.41 242.79 195.802L250.413 199.926Z" fill="#37474F"/>
<path d="M240.818 181.079L236.847 184.262L213.724 171.745C213.098 171.362 212.617 170.803 212.35 170.148C212.292 170.041 212.245 169.929 212.21 169.814L216.32 166.977C216.599 167.629 217.083 168.186 217.707 168.574L240.818 181.079Z" fill="#37474F"/>
<path d="M256.776 177.849L250.413 174.427V133.801C250.407 132.994 250.207 132.2 249.828 131.476C249.548 130.825 249.064 130.268 248.441 129.879L237.356 123.918C237.188 123.833 237.013 123.757 236.834 123.692L216.676 149.393C215.94 150.623 215.608 152.029 215.722 153.435V164.652C215.732 165.459 215.936 166.254 216.32 166.977C216.596 167.63 217.08 168.188 217.707 168.574L240.818 181.079V191.808C240.814 192.634 241.015 193.45 241.403 194.192C241.687 194.845 242.175 195.402 242.803 195.79L250.439 199.902V191.558L254.422 188.387L258.736 190.771V181.794C258.73 180.988 258.53 180.194 258.151 179.47C257.873 178.814 257.395 178.25 256.776 177.849ZM241.238 164.342L237.216 167.275L226.501 161.481L237.216 147.796L241.187 144.851L241.238 164.342Z" fill="#AFB7BB"/>
<path d="M116.637 164.759C116.757 164.835 116.85 164.943 116.904 165.069C116.978 165.206 117.017 165.357 117.019 165.51V167.668C117.024 167.728 117.017 167.789 116.997 167.846C116.978 167.903 116.946 167.956 116.904 168.002C116.867 168.032 116.82 168.049 116.77 168.049C116.721 168.049 116.674 168.032 116.637 168.002L109.943 164.426C109.826 164.347 109.733 164.24 109.676 164.116C109.606 163.974 109.571 163.819 109.574 163.663V150.55C109.567 150.49 109.572 150.431 109.589 150.373C109.607 150.316 109.636 150.263 109.676 150.216C109.713 150.186 109.76 150.169 109.809 150.169C109.858 150.169 109.906 150.186 109.943 150.216L116.535 153.792C116.652 153.871 116.745 153.978 116.802 154.102C116.867 154.245 116.902 154.399 116.904 154.555V156.713C116.912 156.828 116.876 156.942 116.802 157.035C116.764 157.063 116.717 157.078 116.669 157.078C116.62 157.078 116.573 157.063 116.535 157.035L112.183 154.65V156.856L116.217 159.037C116.337 159.113 116.43 159.221 116.484 159.347C116.558 159.484 116.597 159.635 116.599 159.788V161.958C116.603 162.016 116.595 162.074 116.576 162.13C116.556 162.185 116.525 162.236 116.484 162.28C116.448 162.313 116.4 162.331 116.35 162.331C116.301 162.331 116.253 162.313 116.217 162.28L112.183 160.122V162.411L116.637 164.759Z" fill="#FAFAFA"/>
<path d="M123.598 161.195C123.725 161.267 123.823 161.376 123.878 161.505C123.941 161.645 123.976 161.794 123.98 161.946V164.008C123.987 164.124 123.951 164.238 123.878 164.33C123.839 164.361 123.789 164.378 123.738 164.378C123.687 164.378 123.637 164.361 123.598 164.33L122.325 163.639C121.46 163.174 121.053 163.567 121.053 164.831V169.85C121.057 169.908 121.049 169.966 121.03 170.021C121.01 170.077 120.979 170.128 120.938 170.171C120.874 170.243 120.785 170.243 120.671 170.171L118.902 169.218C118.778 169.146 118.684 169.036 118.635 168.908C118.561 168.767 118.522 168.612 118.52 168.455V158.918C118.516 158.86 118.523 158.802 118.543 158.746C118.563 158.691 118.594 158.64 118.635 158.596C118.698 158.525 118.787 158.525 118.902 158.596L120.531 159.478C120.651 159.554 120.744 159.662 120.798 159.788C120.872 159.925 120.911 160.076 120.913 160.229V160.706C121.13 160.521 121.408 160.411 121.702 160.396C122.09 160.391 122.471 160.495 122.796 160.694L123.598 161.195Z" fill="#FAFAFA"/>
<path d="M130.088 164.7C130.211 164.773 130.305 164.882 130.356 165.01C130.429 165.147 130.468 165.298 130.47 165.451V167.513C130.475 167.571 130.467 167.63 130.447 167.685C130.427 167.74 130.396 167.791 130.356 167.835C130.32 167.868 130.272 167.886 130.222 167.886C130.172 167.886 130.124 167.868 130.088 167.835L128.816 167.144C127.95 166.679 127.543 167.072 127.543 168.336V173.354C127.548 173.412 127.54 173.471 127.52 173.526C127.5 173.581 127.469 173.632 127.428 173.676C127.393 173.709 127.345 173.727 127.295 173.727C127.245 173.727 127.197 173.709 127.161 173.676L125.38 172.723C125.262 172.644 125.17 172.537 125.112 172.413C125.038 172.272 124.999 172.117 124.998 171.96V162.423C124.993 162.365 125.001 162.306 125.021 162.251C125.04 162.196 125.072 162.145 125.112 162.101C125.148 162.068 125.196 162.05 125.246 162.05C125.296 162.05 125.344 162.068 125.38 162.101L127.021 162.983C127.141 163.059 127.234 163.167 127.289 163.293C127.362 163.43 127.401 163.581 127.403 163.734V164.211C127.613 164.023 127.889 163.913 128.179 163.901C128.568 163.896 128.949 164 129.274 164.199L130.088 164.7Z" fill="#FAFAFA"/>
<path d="M138.742 173.903C138.742 174.105 138.742 174.368 138.742 174.69C138.742 175.011 138.742 175.262 138.742 175.464C138.734 176.033 138.626 176.597 138.424 177.133C138.276 177.551 138.007 177.923 137.648 178.206C137.315 178.46 136.892 178.587 136.464 178.564C135.908 178.54 135.368 178.38 134.899 178.099C134.312 177.783 133.783 177.381 133.333 176.907C132.866 176.404 132.468 175.847 132.15 175.25C131.815 174.644 131.554 174.004 131.374 173.342C131.189 172.688 131.082 172.016 131.055 171.34C131.055 171.125 131.055 170.863 131.055 170.541C131.055 170.219 131.055 169.969 131.055 169.766C131.056 169.199 131.155 168.635 131.348 168.097C131.505 167.681 131.778 167.31 132.137 167.024C132.478 166.774 132.901 166.644 133.333 166.655C133.89 166.679 134.429 166.839 134.899 167.12C135.486 167.435 136.014 167.838 136.464 168.312C136.929 168.824 137.33 169.384 137.66 169.981C137.99 170.593 138.25 171.237 138.437 171.9C138.613 172.556 138.715 173.227 138.742 173.903ZM133.652 172.58C133.666 173.077 133.797 173.565 134.033 174.01C134.233 174.398 134.552 174.722 134.95 174.94C135.083 175.029 135.243 175.077 135.408 175.077C135.572 175.077 135.732 175.029 135.866 174.94C136.001 174.807 136.104 174.65 136.17 174.477C136.236 174.305 136.262 174.121 136.248 173.939C136.262 173.716 136.262 173.493 136.248 173.271C136.261 173.033 136.261 172.794 136.248 172.556C136.231 172.063 136.101 171.579 135.866 171.137C135.662 170.752 135.344 170.429 134.95 170.207C134.568 170.005 134.262 169.981 134.033 170.148C133.899 170.28 133.795 170.438 133.729 170.61C133.663 170.783 133.637 170.966 133.652 171.149C133.638 171.375 133.638 171.602 133.652 171.829C133.619 172.078 133.602 172.328 133.601 172.58H133.652Z" fill="#FAFAFA"/>
<path d="M145.194 172.866C145.311 172.945 145.404 173.052 145.461 173.176C145.535 173.317 145.574 173.472 145.576 173.629V175.679C145.583 175.737 145.576 175.796 145.556 175.852C145.537 175.907 145.504 175.958 145.461 176.001C145.426 176.034 145.378 176.052 145.328 176.052C145.278 176.052 145.23 176.034 145.194 176.001L143.921 175.31C143.056 174.833 142.649 175.226 142.649 176.502V181.508C142.656 181.567 142.649 181.626 142.629 181.681C142.609 181.737 142.577 181.788 142.534 181.83C142.499 181.863 142.451 181.881 142.401 181.881C142.351 181.881 142.303 181.863 142.267 181.83L140.485 180.865C140.365 180.789 140.272 180.681 140.218 180.555C140.144 180.418 140.105 180.267 140.104 180.114V170.577C140.098 170.517 140.105 170.457 140.125 170.399C140.145 170.342 140.176 170.289 140.218 170.243C140.255 170.213 140.303 170.196 140.352 170.196C140.401 170.196 140.448 170.213 140.485 170.243L142.127 171.125C142.244 171.204 142.337 171.311 142.394 171.435C142.468 171.576 142.507 171.731 142.509 171.888V172.353C142.722 172.17 142.996 172.061 143.285 172.043C143.675 172.043 144.055 172.151 144.38 172.353L145.194 172.866Z" fill="#FAFAFA"/>
<path d="M145.754 180.793C145.769 180.63 145.83 180.473 145.932 180.34C146.034 180.233 146.174 180.221 146.365 180.34L148.096 181.27C148.197 181.331 148.276 181.418 148.325 181.52C148.377 181.638 148.407 181.763 148.414 181.89C148.414 181.949 148.414 181.985 148.414 182.021L147.307 185.478C147.266 185.6 147.201 185.713 147.116 185.812C147.027 185.907 146.887 185.907 146.696 185.812L145.639 185.24C145.537 185.184 145.46 185.095 145.423 184.989C145.364 184.878 145.333 184.756 145.334 184.632L145.754 180.793Z" fill="#FAFAFA"/>
<path d="M157.208 190.163C156.946 190.018 156.702 189.846 156.482 189.65C156.286 189.466 156.107 189.267 155.948 189.054C155.802 188.862 155.674 188.659 155.566 188.446C155.464 188.244 155.375 188.077 155.311 187.91V192.309C155.318 192.367 155.312 192.426 155.292 192.481C155.272 192.537 155.24 192.588 155.197 192.631C155.161 192.663 155.113 192.682 155.063 192.682C155.013 192.682 154.965 192.663 154.93 192.631L153.148 191.665C153.025 191.592 152.931 191.483 152.881 191.355C152.807 191.218 152.768 191.067 152.766 190.914V177.515C152.762 177.457 152.769 177.398 152.789 177.343C152.809 177.288 152.84 177.237 152.881 177.193C152.919 177.165 152.966 177.15 153.014 177.15C153.063 177.15 153.11 177.165 153.148 177.193L154.866 178.123C154.986 178.199 155.079 178.307 155.133 178.433C155.207 178.57 155.246 178.72 155.248 178.874V179.351C155.324 179.255 155.426 179.16 155.515 179.065C155.618 178.972 155.745 178.906 155.884 178.874C156.059 178.832 156.243 178.832 156.419 178.874C156.698 178.935 156.965 179.039 157.208 179.184C157.658 179.43 158.062 179.744 158.404 180.114C158.806 180.526 159.141 180.992 159.396 181.496C159.692 182.085 159.922 182.7 160.084 183.332C160.261 184.064 160.355 184.811 160.364 185.561C160.364 185.764 160.364 186.05 160.364 186.396C160.364 186.742 160.364 187.016 160.364 187.207C160.369 187.856 160.275 188.502 160.084 189.126C159.959 189.537 159.722 189.911 159.396 190.211C159.263 190.326 159.107 190.415 158.936 190.472C158.766 190.529 158.585 190.554 158.404 190.544C157.978 190.511 157.567 190.38 157.208 190.163ZM157.844 185.573C157.871 185.176 157.871 184.778 157.844 184.381C157.816 183.895 157.704 183.416 157.513 182.963C157.344 182.521 157.009 182.153 156.571 181.926C156.412 181.829 156.226 181.779 156.037 181.783C155.892 181.793 155.756 181.852 155.655 181.949C155.559 182.069 155.481 182.202 155.426 182.343C155.373 182.519 155.335 182.698 155.311 182.879C155.311 183.07 155.311 183.308 155.311 183.571C155.311 183.833 155.311 184.083 155.311 184.298C155.337 184.518 155.375 184.737 155.426 184.953C155.487 185.173 155.563 185.388 155.655 185.597C155.755 185.807 155.883 186.003 156.037 186.181C156.184 186.355 156.365 186.501 156.571 186.61C157.017 186.849 157.335 186.849 157.513 186.61C157.72 186.299 157.835 185.941 157.844 185.573Z" fill="#FAFAFA"/>
<path d="M161.242 189.126C161.198 188.789 161.24 188.447 161.364 188.128C161.487 187.809 161.69 187.522 161.954 187.29C162.318 187.127 162.716 187.042 163.119 187.042C163.522 187.042 163.92 187.127 164.283 187.29L165.938 187.779C165.942 187.468 165.877 187.159 165.747 186.873C165.623 186.588 165.398 186.353 165.11 186.205C164.964 186.112 164.79 186.066 164.614 186.074C164.52 186.092 164.43 186.125 164.347 186.169C164.314 186.197 164.276 186.217 164.234 186.23C164.193 186.242 164.148 186.246 164.105 186.241C164.01 186.219 163.92 186.183 163.838 186.134L162.043 185.168C161.945 185.105 161.866 185.018 161.814 184.918C161.752 184.804 161.725 184.676 161.738 184.548C161.759 184.257 161.855 183.975 162.018 183.726C162.191 183.481 162.433 183.287 162.718 183.165C163.051 183.035 163.415 182.986 163.774 183.022C164.249 183.076 164.705 183.226 165.11 183.463C165.671 183.76 166.178 184.138 166.612 184.584C167.03 185.003 167.382 185.477 167.656 185.991C167.933 186.501 168.142 187.042 168.279 187.6C168.407 188.176 168.471 188.764 168.47 189.352V195.527C168.475 195.585 168.467 195.644 168.447 195.699C168.428 195.754 168.396 195.805 168.356 195.849C168.32 195.882 168.272 195.9 168.222 195.9C168.172 195.9 168.124 195.882 168.088 195.849L166.307 194.896C166.189 194.817 166.097 194.71 166.039 194.586C165.969 194.444 165.935 194.289 165.938 194.133V193.501C165.842 193.635 165.718 193.75 165.574 193.838C165.429 193.926 165.267 193.986 165.098 194.013C164.643 194.03 164.195 193.904 163.825 193.656C163.418 193.44 163.052 193.162 162.743 192.833C162.427 192.504 162.162 192.135 161.954 191.737C161.737 191.327 161.57 190.895 161.458 190.449C161.338 190.016 161.266 189.573 161.242 189.126ZM164.461 191.331C164.636 191.437 164.839 191.495 165.047 191.498C165.216 191.494 165.378 191.435 165.505 191.331C165.652 191.209 165.762 191.053 165.823 190.878C165.904 190.652 165.943 190.414 165.938 190.175L164.665 189.758C164.566 189.719 164.46 189.699 164.353 189.699C164.246 189.699 164.14 189.719 164.041 189.758C163.959 189.814 163.894 189.891 163.854 189.979C163.814 190.067 163.799 190.163 163.812 190.258C163.805 190.484 163.867 190.708 163.99 190.902C164.109 191.078 164.271 191.225 164.461 191.331Z" fill="#FAFAFA"/>
<path d="M173.522 200.2C173.658 200.292 173.815 200.354 173.98 200.383C174.145 200.412 174.314 200.407 174.477 200.367C174.744 200.272 174.884 199.986 174.884 199.509V198.09C174.801 198.194 174.707 198.29 174.604 198.376C174.505 198.474 174.376 198.541 174.235 198.567C174.059 198.609 173.876 198.609 173.7 198.567C173.426 198.503 173.163 198.399 172.924 198.257C172.473 198.011 172.065 197.702 171.715 197.339C171.324 196.922 170.994 196.457 170.735 195.957C170.439 195.381 170.209 194.777 170.048 194.156C169.867 193.445 169.769 192.718 169.755 191.987C169.755 191.784 169.755 191.534 169.755 191.26C169.755 190.985 169.755 190.747 169.755 190.544C169.756 189.911 169.854 189.28 170.048 188.673C170.175 188.273 170.412 187.911 170.735 187.624C171.005 187.402 171.356 187.286 171.715 187.302C172.143 187.339 172.556 187.465 172.924 187.671C173.213 187.829 173.482 188.017 173.726 188.232C173.941 188.421 174.138 188.628 174.311 188.852C174.457 189.046 174.588 189.249 174.706 189.46C174.808 189.662 174.884 189.841 174.948 189.996V189.531C174.942 189.471 174.949 189.411 174.969 189.353C174.989 189.296 175.02 189.243 175.062 189.197C175.102 189.168 175.151 189.153 175.202 189.153C175.253 189.153 175.302 189.168 175.342 189.197L176.971 190.08C177.091 190.155 177.184 190.263 177.238 190.389C177.312 190.526 177.351 190.677 177.353 190.831V200.749C177.38 201.376 177.281 202.003 177.06 202.597C176.916 203.006 176.641 203.365 176.271 203.622C175.889 203.837 175.435 203.909 174.998 203.824C174.449 203.732 173.923 203.547 173.446 203.276C172.77 202.916 172.164 202.453 171.651 201.905C171.216 201.435 170.848 200.914 170.557 200.355C170.311 199.885 170.127 199.389 170.01 198.877C169.909 198.486 169.849 198.087 169.832 197.685C169.82 197.625 169.824 197.563 169.844 197.505C169.864 197.446 169.899 197.394 169.946 197.351C169.983 197.321 170.031 197.304 170.08 197.304C170.129 197.304 170.176 197.321 170.213 197.351L172.046 198.341C172.278 198.493 172.437 198.724 172.491 198.984C172.558 199.208 172.661 199.421 172.797 199.616C172.973 199.873 173.225 200.076 173.522 200.2ZM172.25 192.106C172.238 192.265 172.238 192.424 172.25 192.583C172.239 192.758 172.239 192.933 172.25 193.107C172.27 193.577 172.387 194.038 172.593 194.466C172.777 194.878 173.105 195.218 173.522 195.432C173.904 195.647 174.197 195.647 174.4 195.432C174.625 195.199 174.755 194.899 174.769 194.586C174.82 194.158 174.82 193.726 174.769 193.298C174.725 192.884 174.605 192.481 174.413 192.106C174.226 191.717 173.915 191.392 173.522 191.176C173.115 190.95 172.809 190.938 172.606 191.176C172.389 191.443 172.276 191.771 172.288 192.106H172.25Z" fill="#FAFAFA"/>
<path d="M181.196 198.794C181.192 199.076 181.23 199.357 181.311 199.628C181.384 199.857 181.487 200.077 181.616 200.284C181.728 200.46 181.865 200.62 182.023 200.761C182.161 200.876 182.31 200.98 182.469 201.071C182.669 201.193 182.894 201.274 183.13 201.309C183.281 201.321 183.432 201.278 183.55 201.19C183.614 201.134 183.694 201.097 183.779 201.083C183.866 201.08 183.952 201.105 184.021 201.154L185.854 202.144C185.96 202.212 186.044 202.305 186.097 202.414C186.151 202.523 186.173 202.644 186.159 202.763C186.143 202.986 186.074 203.202 185.956 203.395C185.798 203.663 185.57 203.889 185.294 204.051C184.953 204.255 184.553 204.355 184.148 204.337C183.55 204.308 182.97 204.132 182.469 203.824C181.857 203.488 181.307 203.061 180.84 202.561C180.35 202.038 179.943 201.452 179.631 200.82C179.304 200.141 179.06 199.429 178.905 198.698C178.734 197.894 178.649 197.075 178.651 196.255C178.641 195.564 178.726 194.875 178.905 194.204C179.022 193.705 179.272 193.242 179.631 192.857C179.95 192.55 180.383 192.371 180.84 192.356C181.419 192.361 181.985 192.522 182.469 192.821C183.153 193.19 183.75 193.685 184.225 194.276C184.707 194.869 185.105 195.518 185.408 196.207C185.711 196.898 185.933 197.617 186.07 198.353C186.204 199.037 186.272 199.731 186.274 200.427V200.999C186.278 201.057 186.27 201.116 186.251 201.171C186.231 201.226 186.2 201.277 186.159 201.321C186.124 201.354 186.076 201.372 186.026 201.372C185.976 201.372 185.928 201.354 185.892 201.321L181.196 198.794ZM182.469 195.575C182.074 195.361 181.769 195.361 181.565 195.575C181.34 195.845 181.211 196.174 181.196 196.517L183.741 197.9C183.695 197.435 183.57 196.981 183.372 196.553C183.188 196.146 182.872 195.804 182.469 195.575Z" fill="#FAFAFA"/>
<path d="M198.084 211.513C198.088 211.571 198.08 211.63 198.061 211.685C198.041 211.74 198.01 211.791 197.969 211.835C197.931 211.863 197.884 211.879 197.835 211.879C197.787 211.879 197.74 211.863 197.702 211.835L195.92 210.87C195.8 210.794 195.707 210.686 195.653 210.56C195.579 210.423 195.54 210.272 195.538 210.119V204.957C195.545 204.424 195.446 203.894 195.246 203.395C195.071 202.96 194.744 202.595 194.317 202.358C193.884 202.132 193.579 202.144 193.388 202.358C193.17 202.721 193.069 203.135 193.095 203.55V208.712C193.1 208.77 193.092 208.828 193.072 208.884C193.052 208.939 193.021 208.99 192.98 209.034C192.945 209.067 192.897 209.085 192.847 209.085C192.797 209.085 192.749 209.067 192.713 209.034L190.932 208.08C190.814 208.001 190.722 207.894 190.664 207.77C190.59 207.629 190.551 207.474 190.55 207.317V197.78C190.545 197.722 190.553 197.664 190.573 197.609C190.592 197.554 190.624 197.503 190.664 197.459C190.7 197.426 190.748 197.407 190.798 197.407C190.848 197.407 190.896 197.426 190.932 197.459L192.65 198.377C192.77 198.452 192.863 198.56 192.917 198.686C192.991 198.823 193.03 198.974 193.031 199.128V199.604C193.111 199.502 193.205 199.409 193.311 199.33C193.425 199.234 193.567 199.171 193.719 199.151C193.903 199.116 194.094 199.116 194.279 199.151C194.538 199.218 194.787 199.318 195.017 199.449C195.491 199.698 195.921 200.016 196.289 200.391C196.681 200.802 197.006 201.264 197.256 201.762C197.538 202.333 197.747 202.933 197.88 203.55C198.039 204.272 198.116 205.007 198.109 205.744L198.084 211.513Z" fill="#FAFAFA"/>
<path d="M207.017 210.822C207.017 211.037 207.017 211.299 207.017 211.621C207.017 211.943 207.017 212.193 207.017 212.396C207.013 212.96 206.91 213.52 206.712 214.053C206.562 214.473 206.294 214.848 205.936 215.137C205.596 215.389 205.171 215.516 204.739 215.495C204.182 215.466 203.643 215.301 203.174 215.018C202.591 214.702 202.066 214.3 201.621 213.826C201.15 213.323 200.748 212.766 200.425 212.169C200.093 211.557 199.833 210.914 199.649 210.25C199.461 209.596 199.358 208.924 199.343 208.247C199.343 208.044 199.343 207.782 199.343 207.46C199.343 207.138 199.343 206.888 199.343 206.685C199.332 206.117 199.431 205.551 199.636 205.016C199.784 204.599 200.053 204.227 200.412 203.944C200.772 203.674 201.226 203.542 201.685 203.574C202.237 203.6 202.772 203.76 203.238 204.039C203.825 204.354 204.353 204.757 204.803 205.231C205.271 205.741 205.672 206.301 205.999 206.9C206.334 207.51 206.595 208.154 206.775 208.819C206.943 209.475 207.024 210.148 207.017 210.822ZM201.927 209.511C201.952 210.004 202.087 210.487 202.321 210.929C202.521 211.314 202.835 211.637 203.225 211.859C203.607 212.074 203.912 212.086 204.141 211.859C204.276 211.726 204.38 211.569 204.445 211.396C204.511 211.224 204.538 211.04 204.523 210.858C204.538 210.631 204.538 210.405 204.523 210.178C204.537 209.944 204.537 209.709 204.523 209.475C204.508 208.982 204.378 208.497 204.141 208.056C203.941 207.668 203.622 207.344 203.225 207.126C203.095 207.035 202.936 206.985 202.773 206.985C202.61 206.985 202.452 207.035 202.321 207.126C202.187 207.26 202.083 207.417 202.015 207.589C201.947 207.761 201.917 207.945 201.927 208.128C201.927 208.319 201.927 208.545 201.927 208.807C201.927 209.07 201.863 209.296 201.876 209.511H201.927Z" fill="#FAFAFA"/>
<path d="M211.662 215.269C211.656 215.541 211.703 215.811 211.802 216.067C211.894 216.283 212.06 216.463 212.273 216.58L213.406 217.188C213.526 217.264 213.619 217.372 213.673 217.498C213.748 217.638 213.787 217.793 213.788 217.951V220.001C213.794 220.059 213.788 220.118 213.768 220.174C213.748 220.229 213.716 220.28 213.673 220.323C213.637 220.356 213.589 220.374 213.539 220.374C213.489 220.374 213.442 220.356 213.406 220.323L212.057 219.596C211.604 219.348 211.195 219.034 210.848 218.666C210.485 218.275 210.177 217.843 209.932 217.379C209.668 216.873 209.467 216.341 209.333 215.793C209.189 215.203 209.116 214.599 209.117 213.993V210.572L208.074 210.011C207.953 209.935 207.86 209.827 207.806 209.701C207.733 209.565 207.693 209.414 207.692 209.26V207.198C207.685 207.14 207.692 207.081 207.711 207.025C207.731 206.97 207.764 206.919 207.806 206.876C207.842 206.843 207.89 206.825 207.94 206.825C207.99 206.825 208.038 206.843 208.074 206.876L209.117 207.448V204.122C209.111 204.064 209.118 204.006 209.138 203.95C209.158 203.895 209.19 203.844 209.232 203.801C209.27 203.773 209.317 203.757 209.365 203.757C209.414 203.757 209.461 203.773 209.499 203.801L211.281 204.766C211.401 204.842 211.494 204.95 211.548 205.076C211.622 205.213 211.661 205.364 211.662 205.517V208.843L213.253 209.701C213.377 209.776 213.475 209.884 213.533 210.011C213.603 210.153 213.638 210.308 213.635 210.464V212.515C213.642 212.574 213.637 212.634 213.619 212.691C213.602 212.748 213.573 212.802 213.533 212.849C213.493 212.878 213.444 212.893 213.393 212.893C213.342 212.893 213.293 212.878 213.253 212.849L211.662 211.99V215.269Z" fill="#FAFAFA"/>
<path d="M221.143 213.957L222.874 214.899C222.991 214.973 223.083 215.076 223.141 215.197C223.214 215.339 223.253 215.493 223.256 215.65V217.712C223.26 217.77 223.253 217.829 223.233 217.884C223.213 217.939 223.182 217.99 223.141 218.034C223.103 218.062 223.056 218.077 223.008 218.077C222.959 218.077 222.912 218.062 222.874 218.034L221.143 217.092V223.971C221.15 224.029 221.143 224.088 221.124 224.143C221.104 224.199 221.071 224.25 221.029 224.293C220.993 224.325 220.945 224.344 220.895 224.344C220.845 224.344 220.797 224.325 220.761 224.293L218.98 223.327C218.857 223.254 218.763 223.145 218.713 223.017C218.639 222.88 218.6 222.729 218.598 222.576V215.686L217.631 215.161C217.509 215.125 217.403 215.054 217.325 214.959C217.262 214.819 217.227 214.669 217.224 214.517V212.455C217.216 212.34 217.252 212.226 217.325 212.133C217.366 212.104 217.415 212.089 217.465 212.089C217.516 212.089 217.565 212.104 217.605 212.133L218.573 212.67V212.121C218.557 211.596 218.635 211.073 218.802 210.572C218.917 210.222 219.143 209.914 219.451 209.689C219.73 209.5 220.075 209.415 220.418 209.451C220.869 209.487 221.305 209.622 221.69 209.844L223.027 210.572C223.15 210.644 223.245 210.753 223.294 210.882C223.368 211.023 223.407 211.177 223.408 211.335V213.385C223.414 213.445 223.407 213.505 223.387 213.563C223.367 213.62 223.336 213.673 223.294 213.719C223.257 213.749 223.209 213.766 223.16 213.766C223.111 213.766 223.064 213.749 223.027 213.719L221.754 213.027C221.525 212.908 221.36 212.908 221.27 213.027C221.171 213.199 221.126 213.393 221.143 213.588V213.957Z" fill="#FAFAFA"/>
<path d="M231.604 224.126C231.604 224.328 231.604 224.591 231.604 224.913C231.604 225.234 231.604 225.485 231.604 225.687C231.595 226.256 231.487 226.82 231.286 227.356C231.133 227.772 230.865 228.142 230.51 228.429C230.175 228.681 229.754 228.808 229.326 228.787C228.769 228.758 228.23 228.593 227.761 228.31C227.173 227.995 226.644 227.593 226.195 227.118C225.728 226.615 225.33 226.058 225.012 225.461C224.353 224.246 223.98 222.912 223.918 221.551C223.918 221.336 223.918 221.074 223.918 220.752C223.918 220.43 223.918 220.18 223.918 219.977C223.918 219.41 224.017 218.846 224.21 218.308C224.362 217.889 224.635 217.518 224.999 217.235C225.34 216.986 225.763 216.855 226.195 216.866C226.752 216.89 227.291 217.05 227.761 217.331C228.348 217.646 228.877 218.049 229.326 218.523C229.791 219.035 230.192 219.595 230.522 220.192C230.861 220.803 231.13 221.447 231.324 222.111C231.493 222.772 231.587 223.447 231.604 224.126ZM226.514 222.803C226.528 223.3 226.659 223.788 226.895 224.233C227.095 224.621 227.414 224.945 227.812 225.163C227.945 225.252 228.106 225.3 228.27 225.3C228.434 225.3 228.594 225.252 228.728 225.163C228.863 225.03 228.966 224.873 229.032 224.7C229.098 224.528 229.124 224.344 229.11 224.161C229.11 223.971 229.11 223.744 229.11 223.482C229.11 223.22 229.11 222.993 229.11 222.779C229.094 222.285 228.963 221.801 228.728 221.36C228.524 220.974 228.206 220.652 227.812 220.43C227.43 220.228 227.124 220.204 226.895 220.43C226.761 220.563 226.657 220.721 226.591 220.893C226.526 221.066 226.499 221.249 226.514 221.432C226.5 221.658 226.5 221.885 226.514 222.111C226.484 222.341 226.466 222.571 226.463 222.803H226.514Z" fill="#FAFAFA"/>
<path d="M232.864 220.836C232.857 220.776 232.862 220.716 232.879 220.659C232.897 220.602 232.926 220.548 232.966 220.502C233.003 220.472 233.05 220.455 233.099 220.455C233.148 220.455 233.196 220.472 233.233 220.502L235.015 221.455C235.132 221.534 235.224 221.641 235.282 221.765C235.356 221.906 235.395 222.061 235.396 222.218V227.368C235.387 227.896 235.477 228.42 235.664 228.918C235.823 229.344 236.139 229.703 236.554 229.931C236.974 230.158 237.267 230.134 237.445 229.872C237.644 229.478 237.732 229.043 237.7 228.608V223.458C237.695 223.4 237.703 223.342 237.723 223.287C237.742 223.231 237.774 223.18 237.814 223.136C237.852 223.108 237.899 223.093 237.948 223.093C237.996 223.093 238.043 223.108 238.082 223.136L239.863 224.102C239.983 224.178 240.076 224.286 240.13 224.412C240.206 224.552 240.245 224.708 240.245 224.865V234.402C240.25 234.46 240.242 234.518 240.222 234.573C240.202 234.628 240.171 234.68 240.13 234.723C240.095 234.756 240.047 234.775 239.997 234.775C239.947 234.775 239.899 234.756 239.863 234.723L238.222 233.841C238.101 233.765 238.008 233.657 237.954 233.531C237.881 233.394 237.841 233.244 237.84 233.09V232.613C237.761 232.724 237.667 232.824 237.56 232.911C237.444 232.995 237.309 233.052 237.165 233.078C236.98 233.113 236.79 233.113 236.605 233.078C236.34 233.023 236.086 232.926 235.855 232.792C234.896 232.247 234.134 231.446 233.666 230.492C233.087 229.24 232.813 227.884 232.864 226.522V220.836Z" fill="#FAFAFA"/>
<path d="M249.408 239.265C249.415 239.324 249.408 239.382 249.388 239.438C249.369 239.494 249.336 239.545 249.293 239.587C249.258 239.62 249.21 239.638 249.16 239.638C249.11 239.638 249.062 239.62 249.026 239.587L247.245 238.622C247.121 238.549 247.027 238.44 246.977 238.312C246.904 238.175 246.864 238.024 246.863 237.871V232.721C246.87 232.184 246.77 231.65 246.57 231.147C246.391 230.718 246.064 230.357 245.641 230.122C245.208 229.884 244.903 229.895 244.712 230.122C244.484 230.503 244.382 230.939 244.419 231.374V236.524C244.426 236.582 244.419 236.641 244.4 236.696C244.38 236.752 244.348 236.803 244.305 236.845C244.269 236.878 244.221 236.897 244.171 236.897C244.121 236.897 244.073 236.878 244.038 236.845L242.256 235.88C242.136 235.804 242.043 235.696 241.989 235.57C241.915 235.433 241.876 235.282 241.874 235.129V225.592C241.869 225.532 241.876 225.472 241.896 225.414C241.915 225.357 241.947 225.304 241.989 225.258C242.026 225.228 242.073 225.211 242.122 225.211C242.171 225.211 242.219 225.228 242.256 225.258L243.974 226.176C244.091 226.255 244.183 226.362 244.241 226.486C244.315 226.627 244.354 226.782 244.356 226.939V227.404C244.433 227.299 244.527 227.207 244.636 227.13C244.755 227.042 244.894 226.981 245.043 226.951C245.228 226.916 245.418 226.916 245.603 226.951C245.864 227.007 246.114 227.104 246.341 227.237C246.816 227.486 247.245 227.804 247.614 228.179C248.002 228.592 248.327 229.053 248.581 229.55C248.862 230.121 249.072 230.721 249.204 231.338C249.363 232.059 249.44 232.795 249.433 233.531L249.408 239.265Z" fill="#FAFAFA"/>
<path d="M253.849 231.433C254.119 231.567 254.364 231.74 254.575 231.946C254.771 232.13 254.949 232.329 255.109 232.542C255.252 232.731 255.38 232.931 255.491 233.138C255.593 233.341 255.682 233.519 255.745 233.674V229.335C255.741 229.277 255.749 229.219 255.768 229.164C255.788 229.108 255.819 229.057 255.86 229.013C255.898 228.985 255.945 228.97 255.994 228.97C256.042 228.97 256.089 228.985 256.127 229.013L257.909 229.979C258.029 230.055 258.122 230.163 258.176 230.289C258.251 230.43 258.291 230.585 258.291 230.742V244.093C258.298 244.152 258.291 244.211 258.271 244.266C258.251 244.322 258.219 244.373 258.176 244.415C258.14 244.448 258.092 244.466 258.043 244.466C257.993 244.466 257.945 244.448 257.909 244.415L256.191 243.485C256.071 243.414 255.978 243.31 255.924 243.187C255.851 243.046 255.812 242.891 255.809 242.734V242.269C255.727 242.371 255.638 242.466 255.542 242.556C255.436 242.644 255.309 242.709 255.173 242.746C254.997 242.788 254.814 242.788 254.638 242.746C254.359 242.683 254.093 242.579 253.849 242.436C253.404 242.187 253.001 241.878 252.653 241.518C252.254 241.1 251.919 240.63 251.66 240.124C251.363 239.54 251.132 238.929 250.973 238.3C250.797 237.568 250.703 236.821 250.693 236.071C250.693 235.856 250.693 235.582 250.693 235.236C250.693 234.89 250.693 234.616 250.693 234.414C250.689 233.765 250.783 233.118 250.973 232.494C251.101 232.084 251.338 231.711 251.66 231.409C251.793 231.294 251.95 231.205 252.12 231.148C252.291 231.091 252.472 231.066 252.653 231.076C253.077 231.099 253.489 231.222 253.849 231.433ZM253.213 236.011C253.185 236.408 253.185 236.806 253.213 237.203C253.245 237.689 253.357 238.167 253.544 238.622C253.718 239.06 254.051 239.427 254.486 239.659C254.642 239.761 254.829 239.816 255.02 239.814C255.166 239.799 255.302 239.736 255.402 239.635C255.508 239.521 255.586 239.387 255.631 239.242C255.685 239.07 255.723 238.895 255.745 238.717C255.745 238.514 255.745 238.288 255.745 238.014C255.745 237.74 255.745 237.501 255.745 237.287C255.745 237.072 255.682 236.857 255.631 236.631C255.578 236.41 255.501 236.194 255.402 235.987C255.302 235.781 255.174 235.589 255.02 235.415C254.873 235.238 254.692 235.088 254.486 234.974C254.04 234.735 253.735 234.747 253.544 234.974C253.339 235.287 253.225 235.644 253.213 236.011Z" fill="#FAFAFA"/>
</svg>
