<svg width="107" height="96" viewBox="0 0 107 96" fill="none" xmlns="http://www.w3.org/2000/svg">
<path fill-rule="evenodd" clip-rule="evenodd" d="M64.8815 6.56442L85.0359 41.4356L105.191 76.3076C107.603 80.4823 107.603 85.2611 105.191 89.4359C102.778 93.6106 98.635 96 93.8092 96H13.1909C8.36538 96 4.22253 93.6106 1.80977 89.4359C-0.603257 85.2611 -0.603257 80.4823 1.80977 76.3076L21.9642 41.4356L42.1187 6.56442C44.5314 2.38939 48.6745 0 53.5001 0C58.3259 0 62.469 2.38939 64.8815 6.56442Z" fill="#E6E6E6"/>
<path d="M56.4276 10.6692C56.0427 9.9957 55.5659 9.4925 55.0079 9.16641C54.4544 8.84384 53.7813 8.67917 52.9999 8.67917C52.2211 8.67917 51.5499 8.84249 50.9975 9.16371L50.9993 9.16641C50.4343 9.49656 49.9544 9.99975 49.5718 10.6692L9.21347 81.3214C8.83145 81.9901 8.64017 82.6628 8.64017 83.3258C8.64017 83.9872 8.83038 84.658 9.21026 85.3251L9.21347 85.3232C9.60245 86.0043 10.0797 86.5099 10.6337 86.833C11.187 87.1559 11.8598 87.3206 12.6415 87.3206H93.3585C94.1399 87.3206 94.813 87.1559 95.3657 86.833C95.9198 86.5099 96.3973 86.0043 96.7863 85.3232L96.7895 85.3251C97.1696 84.658 97.3593 83.9872 97.3593 83.3258C97.3593 82.6677 97.1683 81.9974 96.7863 81.3285V81.3214L56.4276 10.6692ZM56.8131 5.9907C57.933 6.64342 58.8594 7.59924 59.5705 8.84384L99.9256 79.4906L99.9288 79.4888C100.643 80.7388 101 82.0263 101 83.3258C101 84.6207 100.643 85.9059 99.9288 87.1556V87.1629C99.2223 88.4005 98.2956 89.3539 97.1718 90.0093C96.0479 90.6653 94.7691 91 93.3585 91H12.6415C11.2306 91 9.95183 90.6653 8.8277 90.0093C7.70438 89.3539 6.77795 88.4005 6.07089 87.1629V87.1556C5.35714 85.9059 5 84.6207 5 83.3258C5 82.0312 5.35714 80.7458 6.07089 79.4961L46.4295 8.84384C47.1427 7.59519 48.067 6.63909 49.1791 5.9907H49.1863C50.3105 5.33447 51.589 5 52.9999 5C54.4108 5 55.6893 5.33447 56.8131 5.9907Z" fill="#37474F"/>
<path fill-rule="evenodd" clip-rule="evenodd" d="M53.4989 30C49.9077 30 48 30.3332 48 32.4088C48 33.6541 48.2238 35.3987 48.7846 39.8011L52.0406 66.6262C52.6013 67.1246 54.2854 67.1246 54.9586 66.6262L58.2135 39.8011C58.7756 35.3987 59 33.6541 59 32.4088C59 30.3332 57.0918 30 53.4989 30Z" fill="#37474F"/>
<path fill-rule="evenodd" clip-rule="evenodd" d="M53.4997 79C56.2322 79 58 76.9829 58 74.1762C58 71.3685 56.2322 69 53.4997 69C50.9284 69 49 71.1934 49 74.1762C49 77.158 51.1694 79 53.4997 79Z" fill="#37474F"/>
</svg>
